<?xml version="1.0" encoding="iso-8859-1"?>
<!-- Generator: Adobe Illustrator 19.0.0, SVG Export Plug-In . SVG Version: 6.00 Build 0)  -->
<svg version="1.1" id="Layer_1" xmlns="http://www.w3.org/2000/svg" xmlns:xlink="http://www.w3.org/1999/xlink" x="0px" y="0px"
	 viewBox="0 0 512 512" style="enable-background:new 0 0 512 512;" xml:space="preserve">
<path style="fill:#D9D8DB;" d="M311.865,319.327l-36.027,34.518L433.993,512L512,433.993L355.521,277.514L311.865,319.327z"/>
<path style="fill:#64C37D;" d="M58.78,58.78c-1.248,1.248-2.475,2.505-3.688,3.775c-74.661,78.639-73.441,203.367,3.688,280.495
	c77.121,77.121,201.849,78.341,280.488,3.68c1.27-1.212,2.526-2.44,3.775-3.688c78.37-78.37,78.378-205.893,0.007-284.262
	C264.673-19.596,137.151-19.59,58.78,58.78z M278.879,278.879c-1.248,1.248-2.526,2.468-3.826,3.637
	c-43.207,39.315-110.362,38.103-152.102-3.637c-41.748-41.748-42.96-108.902-3.645-152.109c1.169-1.299,2.388-2.577,3.637-3.826
	c42.988-42.988,112.939-42.988,155.934,0.007C321.867,165.941,321.867,235.891,278.879,278.879z"/>
<polygon style="fill:#C8C6CD;" points="355.521,277.514 512,433.993 469.265,476.728 311.865,319.327 "/>
<path style="fill:#029B6F;" d="M343.049,58.78c78.37,78.37,78.363,205.893-0.007,284.262c-1.248,1.248-2.505,2.475-3.775,3.688
	l-64.215-64.215c1.3-1.169,2.577-2.388,3.826-3.637c42.988-42.988,42.988-112.939,0-155.927
	c-42.996-42.996-112.946-42.996-155.934-0.007c-1.248,1.248-2.468,2.526-3.637,3.826L55.091,62.555
	c1.212-1.27,2.44-2.526,3.688-3.775C137.151-19.59,264.673-19.596,343.049,58.78z"/>
<g>
</g>
<g>
</g>
<g>
</g>
<g>
</g>
<g>
</g>
<g>
</g>
<g>
</g>
<g>
</g>
<g>
</g>
<g>
</g>
<g>
</g>
<g>
</g>
<g>
</g>
<g>
</g>
<g>
</g>
</svg>
